<?xml version="1.0" standalone="no"?>
<!DOCTYPE svg PUBLIC "-//W3C//DTD SVG 20010904//EN"
 "http://www.w3.org/TR/2001/REC-SVG-20010904/DTD/svg10.dtd">
<svg version="1.0" xmlns="http://www.w3.org/2000/svg"
 width="260.000000pt" height="260.000000pt" viewBox="0 0 260.000000 260.000000"
 preserveAspectRatio="xMidYMid meet">
<metadata>
Created by potrace 1.11, written by Peter Selinger 2001-2013
</metadata>
<g transform="translate(0.000000,260.000000) scale(0.100000,-0.100000)"
fill="#000000" stroke="none">
<path d="M0 1300 l0 -1300 1300 0 1300 0 0 1300 0 1300 -1300 0 -1300 0 0
-1300z m2590 0 l0 -1290 -1290 0 -1290 0 0 1290 0 1290 1290 0 1290 0 0 -1290z"/>
<path d="M740 1035 l0 -635 140 0 140 0 0 268 0 269 30 45 c37 56 101 100 154
105 48 4 81 -11 110 -50 20 -27 21 -44 26 -330 l5 -302 138 -3 137 -3 0 345
c0 310 -2 350 -19 405 -25 82 -59 124 -126 156 -51 25 -62 27 -152 23 -120 -5
-170 -25 -248 -99 l-55 -52 0 247 0 246 -140 0 -140 0 0 -635z"/>
<path d="M1850 1465 l0 -145 -60 0 -60 0 0 -105 0 -104 58 -3 57 -3 5 -285 5
-285 27 -47 c22 -36 41 -53 83 -74 53 -25 61 -26 163 -21 97 4 217 32 244 56
7 6 -36 209 -46 218 -1 2 -22 -4 -46 -12 -89 -31 -142 -12 -155 57 -3 18 -5
114 -3 213 l3 180 93 3 92 3 0 104 0 105 -95 0 -95 0 0 145 0 145 -135 0 -135
0 0 -145z"/>
<path d="M304 677 c-2 -7 -3 -71 -2 -143 l3 -129 113 -3 112 -3 0 146 0 145
-110 0 c-82 0 -112 -3 -116 -13z"/>
</g>
</svg>
